<svg width="780" height="26" viewBox="0 0 780 26" fill="none" xmlns="http://www.w3.org/2000/svg">
<path d="M116.24 8.7C116.24 9.1 116.177 9.45 116.05 9.75C115.923 10.05 115.747 10.3 115.52 10.5C115.293 10.7 115.033 10.85 114.74 10.95C114.447 11.05 114.13 11.1 113.79 11.1C113.363 11.1 112.99 11.0333 112.67 10.9C112.357 10.7667 112.087 10.59 111.86 10.37C111.64 10.1433 111.453 9.89667 111.3 9.63L112.02 9.14C112.127 9.34 112.267 9.53 112.44 9.71C112.62 9.88333 112.827 10.0267 113.06 10.14C113.293 10.2467 113.537 10.3 113.79 10.3C114.123 10.3 114.407 10.2333 114.64 10.1C114.873 9.96667 115.05 9.78 115.17 9.54C115.297 9.3 115.36 9.02 115.36 8.7C115.36 8.38 115.29 8.1 115.15 7.86C115.017 7.62 114.83 7.43333 114.59 7.3C114.357 7.16667 114.09 7.1 113.79 7.1C113.57 7.1 113.367 7.12 113.18 7.16C113 7.19333 112.817 7.25667 112.63 7.35C112.45 7.43667 112.24 7.56333 112 7.73L112.92 4H116.22V4.75H113.58L113.11 6.6C113.277 6.51333 113.447 6.45 113.62 6.41C113.8 6.36333 113.977 6.34 114.15 6.34C114.55 6.34 114.907 6.44 115.22 6.64C115.54 6.84 115.79 7.11667 115.97 7.47C116.15 7.82333 116.24 8.23333 116.24 8.7ZM118.295 7.5C118.295 7.90667 118.335 8.28333 118.415 8.63C118.495 8.97 118.611 9.26667 118.765 9.52C118.918 9.76667 119.101 9.96 119.315 10.1C119.535 10.2333 119.778 10.3 120.045 10.3C120.318 10.3 120.561 10.2333 120.775 10.1C120.988 9.96 121.171 9.76667 121.325 9.52C121.478 9.26667 121.595 8.97 121.675 8.63C121.755 8.28333 121.795 7.90667 121.795 7.5C121.795 7.09333 121.755 6.72 121.675 6.38C121.595 6.03333 121.478 5.73667 121.325 5.49C121.171 5.23667 120.988 5.04333 120.775 4.91C120.561 4.77 120.318 4.7 120.045 4.7C119.778 4.7 119.535 4.77 119.315 4.91C119.101 5.04333 118.918 5.23667 118.765 5.49C118.611 5.73667 118.495 6.03333 118.415 6.38C118.335 6.72 118.295 7.09333 118.295 7.5ZM117.445 7.5C117.445 6.8 117.555 6.18 117.775 5.64C117.995 5.1 118.298 4.67667 118.685 4.37C119.078 4.05667 119.531 3.9 120.045 3.9C120.558 3.9 121.008 4.05667 121.395 4.37C121.788 4.67667 122.095 5.1 122.315 5.64C122.535 6.18 122.645 6.8 122.645 7.5C122.645 8.2 122.535 8.82 122.315 9.36C122.095 9.9 121.788 10.3267 121.395 10.64C121.008 10.9467 120.558 11.1 120.045 11.1C119.531 11.1 119.078 10.9467 118.685 10.64C118.298 10.3267 117.995 9.9 117.775 9.36C117.555 8.82 117.445 8.2 117.445 7.5ZM128.561 11L127.811 7.35L128.261 6.05L129.461 11H128.561ZM126.161 10.31L128.261 6.05L128.361 7.65L126.461 11.31L126.161 10.31ZM126.461 11.31L124.591 7.65L124.691 6.05L126.761 10.31L126.461 11.31ZM123.491 11L124.691 6.05L125.141 7.35L124.391 11H123.491Z" fill="black"/>
<path d="M327.8 5.38V4.5L330.2 3.9V11H329.35V4.92L327.8 5.38ZM337.142 8.7C337.142 9.1 337.079 9.45 336.952 9.75C336.825 10.05 336.649 10.3 336.422 10.5C336.195 10.7 335.935 10.85 335.642 10.95C335.349 11.05 335.032 11.1 334.692 11.1C334.265 11.1 333.892 11.0333 333.572 10.9C333.259 10.7667 332.989 10.59 332.762 10.37C332.542 10.1433 332.355 9.89667 332.202 9.63L332.922 9.14C333.029 9.34 333.169 9.53 333.342 9.71C333.522 9.88333 333.729 10.0267 333.962 10.14C334.195 10.2467 334.439 10.3 334.692 10.3C335.025 10.3 335.309 10.2333 335.542 10.1C335.775 9.96667 335.952 9.78 336.072 9.54C336.199 9.3 336.262 9.02 336.262 8.7C336.262 8.38 336.192 8.1 336.052 7.86C335.919 7.62 335.732 7.43333 335.492 7.3C335.259 7.16667 334.992 7.1 334.692 7.1C334.472 7.1 334.269 7.12 334.082 7.16C333.902 7.19333 333.719 7.25667 333.532 7.35C333.352 7.43667 333.142 7.56333 332.902 7.73L333.822 4H337.122V4.75H334.482L334.012 6.6C334.179 6.51333 334.349 6.45 334.522 6.41C334.702 6.36333 334.879 6.34 335.052 6.34C335.452 6.34 335.809 6.44 336.122 6.64C336.442 6.84 336.692 7.11667 336.872 7.47C337.052 7.82333 337.142 8.23333 337.142 8.7ZM339.196 7.5C339.196 7.90667 339.236 8.28333 339.316 8.63C339.396 8.97 339.513 9.26667 339.666 9.52C339.82 9.76667 340.003 9.96 340.216 10.1C340.436 10.2333 340.68 10.3 340.946 10.3C341.22 10.3 341.463 10.2333 341.676 10.1C341.89 9.96 342.073 9.76667 342.226 9.52C342.38 9.26667 342.496 8.97 342.576 8.63C342.656 8.28333 342.696 7.90667 342.696 7.5C342.696 7.09333 342.656 6.72 342.576 6.38C342.496 6.03333 342.38 5.73667 342.226 5.49C342.073 5.23667 341.89 5.04333 341.676 4.91C341.463 4.77 341.22 4.7 340.946 4.7C340.68 4.7 340.436 4.77 340.216 4.91C340.003 5.04333 339.82 5.23667 339.666 5.49C339.513 5.73667 339.396 6.03333 339.316 6.38C339.236 6.72 339.196 7.09333 339.196 7.5ZM338.346 7.5C338.346 6.8 338.456 6.18 338.676 5.64C338.896 5.1 339.2 4.67667 339.586 4.37C339.98 4.05667 340.433 3.9 340.946 3.9C341.46 3.9 341.91 4.05667 342.296 4.37C342.69 4.67667 342.996 5.1 343.216 5.64C343.436 6.18 343.546 6.8 343.546 7.5C343.546 8.2 343.436 8.82 343.216 9.36C342.996 9.9 342.69 10.3267 342.296 10.64C341.91 10.9467 341.46 11.1 340.946 11.1C340.433 11.1 339.98 10.9467 339.586 10.64C339.2 10.3267 338.896 9.9 338.676 9.36C338.456 8.82 338.346 8.2 338.346 7.5ZM349.463 11L348.713 7.35L349.163 6.05L350.363 11H349.463ZM347.063 10.31L349.163 6.05L349.263 7.65L347.363 11.31L347.063 10.31ZM347.363 11.31L345.493 7.65L345.593 6.05L347.663 10.31L347.363 11.31ZM344.393 11L345.593 6.05L346.043 7.35L345.293 11H344.393Z" fill="black"/>
<path d="M538.53 7.55V7C538.757 7 538.957 6.97 539.13 6.91C539.303 6.84333 539.45 6.75667 539.57 6.65C539.69 6.53667 539.78 6.40667 539.84 6.26C539.907 6.11333 539.94 5.95667 539.94 5.79C539.94 5.57 539.9 5.37667 539.82 5.21C539.74 5.03667 539.62 4.90333 539.46 4.81C539.307 4.71667 539.113 4.67 538.88 4.67C538.553 4.67 538.277 4.77333 538.05 4.98C537.823 5.18 537.71 5.43333 537.71 5.74H536.9C536.9 5.37333 536.983 5.05333 537.15 4.78C537.323 4.50667 537.557 4.29333 537.85 4.14C538.15 3.98 538.49 3.9 538.87 3.9C539.27 3.9 539.613 3.98667 539.9 4.16C540.193 4.33333 540.417 4.56 540.57 4.84C540.73 5.12 540.81 5.42667 540.81 5.76C540.81 6.08667 540.713 6.38667 540.52 6.66C540.327 6.93333 540.06 7.15 539.72 7.31C539.38 7.47 538.983 7.55 538.53 7.55ZM538.83 11.1C538.49 11.1 538.183 11.05 537.91 10.95C537.637 10.85 537.403 10.7133 537.21 10.54C537.017 10.36 536.867 10.1533 536.76 9.92C536.653 9.68 536.6 9.42333 536.6 9.15H537.46C537.46 9.37 537.517 9.56667 537.63 9.74C537.75 9.91333 537.913 10.05 538.12 10.15C538.327 10.25 538.563 10.3 538.83 10.3C539.097 10.3 539.327 10.25 539.52 10.15C539.72 10.0433 539.873 9.89667 539.98 9.71C540.087 9.52333 540.14 9.30333 540.14 9.05C540.14 8.83667 540.097 8.65 540.01 8.49C539.93 8.32333 539.817 8.18667 539.67 8.08C539.523 7.96667 539.353 7.88333 539.16 7.83C538.967 7.77667 538.757 7.75 538.53 7.75V7.2C538.87 7.2 539.187 7.23667 539.48 7.31C539.78 7.38333 540.043 7.5 540.27 7.66C540.503 7.81333 540.683 8.01333 540.81 8.26C540.943 8.50667 541.01 8.80333 541.01 9.15C541.01 9.54333 540.913 9.88667 540.72 10.18C540.533 10.4733 540.277 10.7 539.95 10.86C539.623 11.02 539.25 11.1 538.83 11.1ZM543.109 7.5C543.109 7.90667 543.149 8.28333 543.229 8.63C543.309 8.97 543.426 9.26667 543.579 9.52C543.732 9.76667 543.916 9.96 544.129 10.1C544.349 10.2333 544.592 10.3 544.859 10.3C545.132 10.3 545.376 10.2333 545.589 10.1C545.802 9.96 545.986 9.76667 546.139 9.52C546.292 9.26667 546.409 8.97 546.489 8.63C546.569 8.28333 546.609 7.90667 546.609 7.5C546.609 7.09333 546.569 6.72 546.489 6.38C546.409 6.03333 546.292 5.73667 546.139 5.49C545.986 5.23667 545.802 5.04333 545.589 4.91C545.376 4.77 545.132 4.7 544.859 4.7C544.592 4.7 544.349 4.77 544.129 4.91C543.916 5.04333 543.732 5.23667 543.579 5.49C543.426 5.73667 543.309 6.03333 543.229 6.38C543.149 6.72 543.109 7.09333 543.109 7.5ZM542.259 7.5C542.259 6.8 542.369 6.18 542.589 5.64C542.809 5.1 543.112 4.67667 543.499 4.37C543.892 4.05667 544.346 3.9 544.859 3.9C545.372 3.9 545.822 4.05667 546.209 4.37C546.602 4.67667 546.909 5.1 547.129 5.64C547.349 6.18 547.459 6.8 547.459 7.5C547.459 8.2 547.349 8.82 547.129 9.36C546.909 9.9 546.602 10.3267 546.209 10.64C545.822 10.9467 545.372 11.1 544.859 11.1C544.346 11.1 543.892 10.9467 543.499 10.64C543.112 10.3267 542.809 9.9 542.589 9.36C542.369 8.82 542.259 8.2 542.259 7.5ZM549.505 7.5C549.505 7.90667 549.545 8.28333 549.625 8.63C549.705 8.97 549.822 9.26667 549.975 9.52C550.128 9.76667 550.312 9.96 550.525 10.1C550.745 10.2333 550.988 10.3 551.255 10.3C551.528 10.3 551.772 10.2333 551.985 10.1C552.198 9.96 552.382 9.76667 552.535 9.52C552.688 9.26667 552.805 8.97 552.885 8.63C552.965 8.28333 553.005 7.90667 553.005 7.5C553.005 7.09333 552.965 6.72 552.885 6.38C552.805 6.03333 552.688 5.73667 552.535 5.49C552.382 5.23667 552.198 5.04333 551.985 4.91C551.772 4.77 551.528 4.7 551.255 4.7C550.988 4.7 550.745 4.77 550.525 4.91C550.312 5.04333 550.128 5.23667 549.975 5.49C549.822 5.73667 549.705 6.03333 549.625 6.38C549.545 6.72 549.505 7.09333 549.505 7.5ZM548.655 7.5C548.655 6.8 548.765 6.18 548.985 5.64C549.205 5.1 549.508 4.67667 549.895 4.37C550.288 4.05667 550.742 3.9 551.255 3.9C551.768 3.9 552.218 4.05667 552.605 4.37C552.998 4.67667 553.305 5.1 553.525 5.64C553.745 6.18 553.855 6.8 553.855 7.5C553.855 8.2 553.745 8.82 553.525 9.36C553.305 9.9 552.998 10.3267 552.605 10.64C552.218 10.9467 551.768 11.1 551.255 11.1C550.742 11.1 550.288 10.9467 549.895 10.64C549.508 10.3267 549.205 9.9 548.985 9.36C548.765 8.82 548.655 8.2 548.655 7.5ZM559.771 11L559.021 7.35L559.471 6.05L560.671 11H559.771ZM557.371 10.31L559.471 6.05L559.571 7.65L557.671 11.31L557.371 10.31ZM557.671 11.31L555.801 7.65L555.901 6.05L557.971 10.31L557.671 11.31ZM554.701 11L555.901 6.05L556.351 7.35L555.601 11H554.701Z" fill="black"/>
<rect y="16" width="705" height="10" rx="5" fill="url(#paint0_linear_282_168)"/>
<rect x="720" y="16" width="10" height="10" rx="5" fill="#1A74AA"/>
<rect x="745" y="16" width="10" height="10" rx="5" fill="#0D96C4"/>
<rect x="770" y="16" width="10" height="10" rx="5" fill="#01B4DC"/>
<rect x="134" y="10" width="2" height="16" fill="#D9D9D9"/>
<rect x="355" y="10" width="2" height="16" fill="#D9D9D9"/>
<rect x="566" y="10" width="2" height="16" fill="#D9D9D9"/>
<defs>
<linearGradient id="paint0_linear_282_168" x1="0" y1="21" x2="705" y2="21" gradientUnits="userSpaceOnUse">
<stop/>
<stop offset="1" stop-color="#2D4585"/>
</linearGradient>
</defs>
</svg>
