<svg width="15" height="17" viewBox="0 0 15 17" fill="none" xmlns="http://www.w3.org/2000/svg">
<path d="M12.6082 10.495C12.0832 9.91417 11.4008 9.91417 10.854 10.495C10.4428 10.9318 10.0359 11.3639 9.62472 11.8007C9.51098 11.9215 9.41911 11.9448 9.2835 11.8751C9.03415 11.7078 8.73668 11.587 8.48732 11.415C7.30181 10.6158 6.30003 9.5982 5.41198 8.44117C4.9789 7.86034 4.59393 7.25627 4.31834 6.55462C4.27459 6.41058 4.27459 6.33623 4.38833 6.21542C4.82141 5.80186 5.20638 5.36972 5.61759 4.93293C6.18629 4.32886 6.18629 3.62721 5.61759 3.02315C5.27637 2.66071 4.95703 2.3215 4.63768 1.98229C4.29646 1.61985 3.97712 1.25741 3.6359 0.918201C3.11095 0.3606 2.42851 0.3606 1.88169 0.918201C1.47047 1.35499 1.06364 1.78713 0.652425 2.22392C0.263086 2.63747 0.061855 3.12073 0.0137344 3.67368C-0.0562591 4.57049 0.149347 5.43942 0.446819 6.28512C1.06364 8.05085 1.99543 9.57496 3.11095 11.0015C4.63768 12.9392 6.45751 14.4633 8.57919 15.5506C9.53723 16.0338 10.5171 16.4195 11.5627 16.4939C12.3151 16.5403 12.9538 16.3266 13.4744 15.7179C13.8156 15.2811 14.2268 14.9186 14.5899 14.5097C15.1367 13.9057 15.1367 13.1808 14.5899 12.6C13.9293 11.8983 13.2688 11.1967 12.6082 10.495Z" fill="url(#paint0_linear_21_25)"/>
<defs>
<linearGradient id="paint0_linear_21_25" x1="7.5" y1="0.5" x2="7.5" y2="16.5" gradientUnits="userSpaceOnUse">
<stop stop-color="#01B4DC"/>
<stop offset="1" stop-color="#2C4685"/>
</linearGradient>
</defs>
</svg>
