<svg width="352" height="90" viewBox="0 0 352 90" fill="none" xmlns="http://www.w3.org/2000/svg">
<path fill-rule="evenodd" clip-rule="evenodd" d="M99.8229 26.0095C97.3106 26.0095 90.8578 26.0095 85.966 26.0095C85.2354 26.0095 84.6613 26.5836 84.6613 27.3145V45.2166C84.6613 45.9211 85.2354 46.5217 85.966 46.5217C86.6962 46.5217 87.271 45.9211 87.271 45.2166V28.468H98.5185V45.2166C98.5185 45.9166 99.118 46.5217 99.8229 46.5217C100.554 46.5217 101.128 45.9211 101.128 45.2166V27.3145C101.128 26.5836 100.554 26.0095 99.8229 26.0095ZM339.03 22.4095H343.674C344.371 22.4095 344.94 22.9794 344.94 23.6756V23.6764C344.94 24.3729 344.371 24.9425 343.674 24.9425H339.03C338.334 24.9425 337.764 24.3729 337.764 23.6764V23.6756C337.764 22.9794 338.334 22.4095 339.03 22.4095ZM248.542 26.0095C246.03 26.0095 239.577 26.0095 234.684 26.0095C233.954 26.0095 233.381 26.5836 233.381 27.3145V45.2166C233.381 45.9211 233.954 46.5217 234.684 46.5217C235.416 46.5217 235.99 45.9211 235.99 45.2166V28.468H247.237V45.2166C247.237 45.9166 247.837 46.5217 248.542 46.5217C249.273 46.5217 249.847 45.9211 249.847 45.2166V27.3145C249.847 26.5836 249.273 26.0095 248.542 26.0095ZM334.026 46.6521C334.417 46.6521 334.782 46.4692 335.043 46.1819L347.648 31.0204V45.3213C347.648 46.0515 348.222 46.6256 348.953 46.6256C349.683 46.6256 350.258 46.0515 350.258 45.3213V27.4188C350.258 26.8708 349.919 26.3753 349.397 26.1924C348.875 26.0095 348.301 26.1659 347.961 26.5836L335.331 41.7198V27.4442C335.331 26.714 334.757 26.1395 334.026 26.1395C333.321 26.1395 332.721 26.714 332.721 27.4442V45.3474C332.721 45.8954 333.086 46.3649 333.582 46.5735C333.739 46.6256 333.895 46.6521 334.026 46.6521ZM319.381 47.0172C317.946 47.0172 316.537 46.7303 315.206 46.1566C313.927 45.6086 312.78 44.8512 311.787 43.8598C310.822 42.8677 310.038 41.7459 309.491 40.4669C308.943 39.1622 308.656 37.7789 308.656 36.3699C308.656 34.9344 308.943 33.5519 309.516 32.2472C310.065 30.9943 310.848 29.8461 311.84 28.8804C312.831 27.8883 313.979 27.1316 315.258 26.5836C316.589 26.0355 317.998 25.749 319.46 25.749C322.304 25.749 324.966 26.8708 326.949 28.9065C327.915 29.8718 328.646 31.0204 329.168 32.2725C329.715 33.5772 329.976 34.9609 329.976 36.3699C329.976 37.8057 329.715 39.1879 329.168 40.4669C328.646 41.7459 327.889 42.8949 326.923 43.8598C324.914 45.8954 322.252 47.0172 319.381 47.0172ZM319.46 28.3584C318.363 28.3584 317.293 28.5671 316.276 28.9843C315.284 29.402 314.423 29.9757 313.666 30.7331C312.91 31.4644 312.309 32.3247 311.917 33.2907C311.474 34.256 311.265 35.2999 311.265 36.3699C311.265 37.4395 311.474 38.4577 311.892 39.4491C312.309 40.4147 312.883 41.2757 313.641 42.0071C315.18 43.5465 317.216 44.4078 319.381 44.4078C321.548 44.4078 323.557 43.5465 325.07 42.0335C325.801 41.3022 326.349 40.4412 326.766 39.4755C327.158 38.4834 327.367 37.4395 327.367 36.3699C327.367 34.2303 326.558 32.2207 325.097 30.7331C323.609 29.1937 321.6 28.3584 319.46 28.3584ZM292.548 46.5735C291.844 46.5735 291.243 45.9994 291.243 45.2688V27.3667C291.243 26.6357 291.844 26.062 292.548 26.062H300.299C300.403 26.062 301.029 26.062 301.839 26.2702C302.987 26.5575 304.005 27.1316 304.787 27.8883C305.362 28.4627 305.831 29.1676 306.145 29.9757C306.484 30.8631 306.667 31.8813 306.667 33.0038C306.667 35.4828 305.623 37.3616 303.666 38.4834C302.256 39.2926 300.378 39.6838 298.055 39.6838C297.35 39.6838 296.75 39.1101 296.75 38.3795C296.75 37.6489 297.35 37.0748 298.055 37.0748C299.908 37.0748 301.368 36.7875 302.36 36.213C303.509 35.5607 304.057 34.5432 304.057 33.0038C304.057 31.9592 303.848 31.0982 303.482 30.4459C303.195 29.9239 302.778 29.5327 302.282 29.2455C301.343 28.6971 300.378 28.671 300.299 28.671H293.853V45.2688C293.853 45.9994 293.279 46.5735 292.548 46.5735ZM287.043 26.062H272.977C272.246 26.062 271.673 26.6357 271.673 27.3667C271.673 28.0973 272.246 28.671 272.977 28.671H278.718V45.2688C278.718 45.9994 279.292 46.5735 280.024 46.5735C280.728 46.5735 281.328 45.9994 281.328 45.2688V28.671H287.043C287.773 28.671 288.348 28.0973 288.348 27.3667C288.348 26.6357 287.773 26.062 287.043 26.062ZM262.953 46.9133C261.492 46.9133 260.082 46.6256 258.751 46.0515C257.499 45.5043 256.35 44.7468 255.359 43.7551C254.367 42.7898 253.61 41.6416 253.062 40.3633C252.488 39.0583 252.228 37.675 252.228 36.2652C252.228 34.8305 252.514 33.4468 253.062 32.1421C253.61 30.8896 254.393 29.741 255.385 28.7761C256.377 27.7839 257.551 27.0265 258.829 26.4792C260.16 25.9312 261.57 25.6444 263.005 25.6444C265.354 25.6444 267.546 26.3753 269.373 27.7839C269.947 28.228 270.051 29.0369 269.634 29.6106C269.19 30.1851 268.355 30.2894 267.807 29.8718C266.424 28.8018 264.78 28.2534 263.005 28.2534C261.909 28.2534 260.839 28.4627 259.822 28.8804C258.856 29.298 257.968 29.8718 257.212 30.6288C256.48 31.3594 255.881 32.2207 255.463 33.1868C255.045 34.1517 254.837 35.1956 254.837 36.2652C254.837 37.3352 255.045 38.3538 255.463 39.3448C255.881 40.3104 256.455 41.1714 257.212 41.9024C258.751 43.4425 260.787 44.3035 262.953 44.3035C263.918 44.3035 264.832 44.1206 265.719 43.8073C266.581 43.4947 267.363 43.0241 268.068 42.4508C268.616 41.9806 269.425 42.0592 269.894 42.6069C270.365 43.1549 270.286 43.9902 269.738 44.4339C268.798 45.2166 267.754 45.8168 266.633 46.2341C265.459 46.6786 264.206 46.9133 262.953 46.9133ZM217.105 26.062C216.401 26.062 215.801 26.6365 215.801 27.3667V45.2688C215.801 46.0001 216.401 46.5742 217.105 46.5742H224.856C224.961 46.5742 225.587 46.5742 226.397 46.3652C227.544 46.078 228.562 45.5043 229.345 44.7472C229.919 44.1731 230.389 43.4686 230.702 42.6605C231.042 41.7727 231.225 40.7541 231.225 39.6324C231.225 37.1534 230.18 35.2742 228.223 34.1521C226.813 33.3429 224.934 32.9513 222.612 32.9513C221.907 32.9513 221.307 33.5258 221.307 34.256C221.307 34.9873 221.907 35.5607 222.612 35.5607C224.465 35.5607 225.926 35.8487 226.919 36.4228C228.066 37.0748 228.614 38.0922 228.614 39.6324C228.614 40.6763 228.406 41.5376 228.04 42.19C227.753 42.7119 227.335 43.1031 226.84 43.3904C225.9 43.9388 224.934 43.9641 224.856 43.9641H218.41V27.3667C218.41 26.6365 217.837 26.062 217.105 26.062ZM204.464 25.7744C203.916 25.7744 203.447 26.0877 203.238 26.5832L195.774 44.6425C195.513 45.2941 195.826 46.0515 196.479 46.3388C197.157 46.6256 197.914 46.287 198.201 45.6339L204.464 30.4976L210.732 45.6339C210.993 46.287 211.776 46.6256 212.429 46.3388C213.107 46.0515 213.42 45.2941 213.133 44.6425L205.664 26.5832C205.456 26.0877 204.986 25.7744 204.464 25.7744ZM174.917 46.5735C174.656 46.5735 174.369 46.496 174.134 46.3127C173.638 45.9476 173.456 45.2688 173.742 44.6943L182.429 26.7926C182.663 26.3489 183.107 26.062 183.603 26.062C184.099 26.062 184.569 26.3489 184.777 26.7926L193.52 44.6686C193.833 45.2949 193.572 46.0776 192.919 46.3913C192.267 46.7303 191.484 46.4431 191.171 45.8168L189.135 41.6155C187.778 41.2232 186.343 41.1714 184.803 41.4587C183.368 41.7198 181.885 42.2414 180.345 43.051C177.683 44.4596 175.83 46.1819 175.805 46.2084C175.57 46.4431 175.23 46.5735 174.917 46.5735ZM183.603 30.3408L178.362 41.1714C178.597 41.0414 178.832 40.911 179.092 40.7802C180.841 39.841 182.611 39.2144 184.308 38.9014C185.482 38.6928 186.604 38.6146 187.7 38.7189L183.603 30.3408ZM159.771 46.5735H159.776H159.804H159.811C160.525 46.5557 161.082 45.9884 161.082 45.2688V28.671H167.527C167.605 28.671 168.571 28.6971 169.511 29.2455C170.006 29.5327 170.424 29.9239 170.711 30.4459C171.076 31.0982 171.285 31.9592 171.285 33.0038C171.285 34.5432 170.737 35.5607 169.588 36.213C168.597 36.7875 167.136 37.0748 165.283 37.0748C164.578 37.0748 163.978 37.6489 163.978 38.3795C163.978 39.1101 164.578 39.6838 165.283 39.6838C167.605 39.6838 169.484 39.2926 170.894 38.4834C172.851 37.3616 173.895 35.4828 173.895 33.0038C173.895 31.8813 173.712 30.8631 173.373 29.9757C173.06 29.1676 172.59 28.4627 172.016 27.8883C171.233 27.1316 170.215 26.5575 169.067 26.2702C168.258 26.062 167.632 26.062 167.527 26.062H159.776H159.771H152.02C151.915 26.062 151.289 26.062 150.481 26.2702C149.332 26.5575 148.314 27.1316 147.532 27.8883C146.957 28.4627 146.487 29.1676 146.174 29.9757C145.835 30.8631 145.652 31.8813 145.652 33.0038C145.652 35.4828 146.696 37.3616 148.653 38.4834C150.063 39.2926 151.941 39.6838 154.264 39.6838C154.968 39.6838 155.569 39.1101 155.569 38.3795C155.569 37.6489 154.968 37.0748 154.264 37.0748C152.412 37.0748 150.95 36.7875 149.958 36.213C148.81 35.5607 148.262 34.5432 148.262 33.0038C148.262 31.9592 148.471 31.0982 148.836 30.4459C149.123 29.9239 149.541 29.5327 150.037 29.2455C150.976 28.6971 151.941 28.671 152.02 28.671H158.466V45.2688C158.466 45.9884 159.022 46.5557 159.736 46.5735H159.744H159.771ZM133.421 47.0172C131.986 47.0172 130.576 46.7303 129.246 46.1566C127.966 45.6086 126.819 44.8512 125.826 43.8598C124.861 42.8677 124.078 41.7459 123.53 40.4669C122.982 39.1622 122.695 37.7789 122.695 36.3699C122.695 34.9344 122.982 33.5519 123.556 32.2472C124.104 30.9943 124.887 29.8461 125.879 28.8804C126.87 27.8883 128.019 27.1316 129.298 26.5836C130.629 26.0355 132.037 25.749 133.499 25.749C136.343 25.749 139.006 26.8708 140.989 28.9065C141.954 29.8718 142.685 31.0204 143.208 32.2725C143.755 33.5772 144.016 34.9609 144.016 36.3699C144.016 37.8057 143.755 39.1879 143.208 40.4669C142.685 41.7459 141.928 42.8949 140.963 43.8598C138.954 45.8954 136.292 47.0172 133.421 47.0172ZM133.499 28.3584C132.403 28.3584 131.333 28.5671 130.316 28.9843C129.324 29.402 128.463 29.9757 127.706 30.7331C126.949 31.4644 126.349 32.3247 125.957 33.2907C125.513 34.256 125.305 35.2999 125.305 36.3699C125.305 37.4395 125.513 38.4577 125.931 39.4491C126.349 40.4147 126.923 41.2757 127.679 42.0071C129.219 43.5465 131.255 44.4078 133.421 44.4078C135.587 44.4078 137.597 43.5465 139.11 42.0335C139.84 41.3022 140.389 40.4412 140.806 39.4755C141.198 38.4834 141.406 37.4395 141.406 36.3699C141.406 34.2303 140.598 32.2207 139.136 30.7331C137.648 29.1937 135.638 28.3584 133.499 28.3584ZM106.608 46.5735C105.903 46.5735 105.304 45.9994 105.304 45.2688V27.3667C105.304 26.6357 105.903 26.062 106.608 26.062H114.359C114.464 26.062 115.09 26.062 115.899 26.2702C117.047 26.5575 118.065 27.1316 118.848 27.8883C119.422 28.4627 119.891 29.1676 120.205 29.9757C120.544 30.8631 120.727 31.8813 120.727 33.0038C120.727 35.4828 119.683 37.3616 117.725 38.4834C116.316 39.2926 114.437 39.6838 112.115 39.6838C111.41 39.6838 110.81 39.1101 110.81 38.3795C110.81 37.6489 111.41 37.0748 112.115 37.0748C113.967 37.0748 115.429 36.7875 116.421 36.213C117.568 35.5607 118.117 34.5432 118.117 33.0038C118.117 31.9592 117.908 31.0982 117.543 30.4459C117.256 29.9239 116.838 29.5327 116.342 29.2455C115.403 28.6971 114.437 28.671 114.359 28.671H107.913V45.2688C107.913 45.9994 107.338 46.5735 106.608 46.5735Z" fill="url(#paint0_linear_1_5)"/>
<path fill-rule="evenodd" clip-rule="evenodd" d="M62.9547 33.3531C62.2445 31.3492 62.4857 29.9266 58.7043 28.1078C59.5565 26.3281 60.1295 25.9157 60.4704 24.4353C63.33 26.5836 65.8941 28.1358 63.632 38.4415C62.2464 37.1111 60.8767 35.9832 59.9783 35.4246C61.5004 35.1064 60.8087 33.914 62.9547 33.3531ZM56.7922 10.3924C61.1609 12.9145 64.5349 14.7117 67.1379 16.1687C77.7123 22.0882 75.5526 22.3951 75.5526 42.8866C75.5526 47.9315 75.6834 51.7518 75.7231 54.735C75.8841 66.8522 74.5382 65.1351 56.7922 75.3807C52.4234 77.9035 49.1795 79.9271 46.6158 81.4525C45.8614 81.9015 45.1675 82.3067 44.5193 82.6691L42.2274 86.3311C41.9303 86.6883 41.5996 87.0156 41.2436 87.3138C39.8285 88.4975 38.0582 89.1347 36.2285 89.2625C34.3732 89.3925 32.5015 88.996 30.8155 88.225C27.6089 86.7601 25.2286 84.0679 23.6949 80.9502C22.8282 81.1255 21.9106 81.039 21.1142 80.6505C20.5477 80.3745 20.1077 79.9822 19.7978 79.5242C19.1848 79.5317 18.5725 79.4074 18.0195 79.1371C17.4352 78.8518 16.9855 78.4425 16.6744 77.9651C16.0406 77.9829 15.4052 77.8593 14.8323 77.5792C13.9501 77.1483 13.3749 76.4348 13.1209 75.6316C9.92227 75.1754 6.78073 73.8791 4.75717 71.2587C3.46344 69.5836 2.816 67.5661 2.86627 65.5433C0.249704 62.9453 0.225515 59.9511 0.382366 52.386C8.14514 48.7131 4.02167 36.8563 18.9323 34.3392C19.3344 34.7685 19.7604 35.2009 20.1999 35.6352C20.7234 34.9337 18.0071 32.7657 17.597 30.9671C16.8294 27.5999 20.0125 24.2501 26.1833 29.5599C24.7724 30.5298 22.9938 31.6194 21.1169 30.4871C31.2222 36.5672 34.6113 16.2757 41.2863 28.7031C25.7283 25.2675 26.8663 42.498 12.9372 42.4319C16.3165 44.1644 21.485 43.221 24.7917 39.8992C30.2433 34.4223 36.1004 27.7197 39.5145 32.593C30.1991 32.319 23.5002 50.1935 10.9529 50.7676C25.5495 52.0493 32.0741 32.7408 37.8859 41.1423C27.1308 41.4061 28.7617 53.3713 12.0101 54.5192C32.6403 55.9184 26.3481 41.3717 43.8073 47.3638C40.6011 48.6152 41.6559 49.6512 40.874 49.7324C37.4592 51.2469 34.1891 52.2673 29.9655 54.8922C37.4671 52.036 40.5334 50.2978 49.3737 49.7959C52.2171 49.6341 51.4623 50.8417 49.0944 51.0587C46.3815 51.307 43.1598 51.6562 40.688 52.6479C41.1313 54.0585 41.2213 54.4867 40.9953 54.6934C40.2598 55.3654 35.7493 57.5409 33.5984 59.3048C35.9844 58.3116 39.7242 55.7649 42.6322 54.8087C44.3768 54.2342 46.8339 53.3041 49.1016 52.8951C52.7451 52.2386 51.3878 53.1718 49.5 53.7988C47.1839 54.5676 44.209 55.8231 42.0895 56.7136C42.9569 58.5315 46.5459 57.0613 48.6549 56.3719C50.6652 55.7143 51.412 56.288 46.5334 58.4045C46.4968 58.4253 45.6724 58.9938 45.6687 58.9957C45.0439 59.5161 45.3697 59.219 44.8852 59.803C47.9424 64.5909 54.0683 57.2246 60.3166 57.1766C62.4736 57.1599 63.4079 54.1851 63.5587 51.8508C62.2241 50.5299 61.1583 48.9534 57.8183 48.3967C54.8956 47.9107 55.3696 48.6284 54.235 45.8112C61.2203 44.0771 62.1096 47.6832 65.004 47.329C66.3026 47.1691 67.4705 46.6529 68.4709 45.9276C69.084 44.9165 67.545 42.6212 65.535 40.3977C65.6336 40.2379 65.716 40.0572 65.7761 39.8591C69.4392 24.7962 65.7954 21.9381 60.8004 21.2087C62.3024 4.3229 28.386 9.28958 20.96 14.2347C32.2396 12.1409 31.771 15.8081 31.1746 15.9937C25.3802 17.4779 22.8498 19.5635 17.4265 16.6045C18.0494 17.4632 17.9587 17.524 18.907 18.1065C20.2332 18.9213 21.6312 19.3136 23.0746 19.4312C19.9203 20.2064 16.7814 20.4067 13.709 19.2161C14.4706 20.0386 14.5548 19.8239 15.4812 20.6096C16.2288 21.2431 17.0815 21.6604 18.0165 21.914C0.155218 25.5189 7.88019 37.6912 0.501421 40.5459C0.471185 36.6352 0.372917 33.5413 0.339279 31.0381C0.178649 18.9209 1.52454 20.638 19.2702 10.3924C23.6393 7.86999 26.8829 5.84605 29.4466 4.32026C39.8599 -1.87741 39.0454 0.146525 56.7922 10.3924ZM22.8441 22.1082C13.8295 22.2583 9.60404 31.4988 7.67988 36.3181C9.96158 34.7288 12.9969 33.6415 18.8215 34.2201C16.0122 31.1878 14.3991 28.2401 17.2428 25.1976C19.8356 22.4227 27.6615 23.0421 30.7308 25.7328C31.2706 25.198 31.763 24.5494 32.4513 24.1409C42.5566 18.1382 39.8599 30.5577 48.2947 28.2912C41.2379 26.3182 44.1727 19.3564 35.5803 21.7435C41.0909 18.0415 43.9992 22.7462 47.5626 25.5948C50.3889 27.8546 49.5022 23.9209 47.9073 22.2991C39.1271 13.3737 32.7026 21.9438 22.8441 22.1082ZM67.7332 57.9623C67.997 57.6781 68.0983 57.6607 68.4305 57.1127L69.4876 53.5686C69.7114 51.6343 69.66 49.517 68.8742 48.2115C67.325 49.4712 65.9266 50.6327 65.2266 51.3984C64.5092 52.1846 64.9907 55.1867 65.4122 56.0163C66.0433 57.2605 67.0521 57.3482 67.7332 57.9623ZM53.4341 25.291C51.8939 21.347 50.0189 16.4068 46.7953 15.81C58.4253 15.6581 55.2766 30.0124 53.4341 25.291ZM47.939 64.3618C47.6593 65.6779 66.3155 72.122 66.6972 62.5669C66.8692 58.2534 67.7902 58.7526 62.7786 58.5837C56.81 58.3822 55.1893 65.4197 47.939 64.3618ZM50.3889 34.9798C50.2619 37.9478 50.3855 39.0828 52.1245 41.0932C46.307 37.8806 44.3972 35.8544 37.924 36.2686C42.1851 33.0284 42.4667 31.1942 50.3889 34.9798ZM17.6816 58.9201C17.0365 58.437 16.3962 58.0973 15.7764 57.8799C15.1713 57.669 14.5847 57.5817 14.0333 57.6003C13.4614 57.4895 12.8805 57.423 12.2917 57.4079C11.3044 57.3814 10.3418 57.505 9.43622 57.7684C9.51257 57.6766 9.59194 57.5855 9.67358 57.4986C11.2481 55.8137 13.7317 54.9969 16.4571 55.9486C18.9792 56.8307 21.7242 59.2927 24.0581 64.1305C22.2042 62.0741 20.0525 60.1726 17.6816 58.9201ZM33.8421 67.4554L33.8403 67.4546C33.3334 67.2071 32.5582 67.3416 32.1179 67.7547L22.1275 77.1219C21.6872 77.535 21.742 78.0755 22.2488 78.3234L22.2503 78.3238C22.7572 78.5717 23.5316 78.4368 23.9719 78.0237L33.9627 68.6565C34.4026 68.2434 34.349 67.7037 33.8421 67.4554ZM27.5621 64.386L27.5606 64.3849C27.0534 64.1373 26.2782 64.2723 25.8379 64.685L15.8474 74.0522C15.4071 74.4649 15.4619 75.0057 15.9688 75.2533L15.9703 75.2541C16.4771 75.5016 17.2519 75.3667 17.6922 74.954L27.6827 65.5868C28.123 65.174 28.0689 64.6336 27.5621 64.386ZM30.7494 65.9439L30.7478 65.9428C30.2406 65.6956 29.4655 65.8302 29.0251 66.2429L19.0347 75.6101C18.5944 76.0228 18.6492 76.5637 19.156 76.8112L19.1575 76.812C19.6644 77.0595 20.4392 76.9246 20.8791 76.5119L30.8699 67.1447C31.3102 66.732 31.2562 66.1915 30.7494 65.9439ZM20.7714 66.6197C17.4265 62.957 14.4524 61.5487 12.1386 61.4856C10.1381 61.4323 8.6652 62.4445 7.97317 63.8225C7.27358 65.2164 7.35295 66.9916 8.4664 68.4339C9.66186 69.982 12.0244 71.1635 15.861 71.2247L14.443 72.554C14.2525 72.732 14.093 72.9259 13.9607 73.13C10.4344 72.7308 8.11528 71.3725 6.80605 69.6762C5.19559 67.5914 5.09166 65.0059 6.11818 62.9604C7.15226 60.8987 9.32095 59.3823 12.2365 59.4609C15.0084 59.5361 18.4942 61.1133 22.2749 65.2107L20.7714 66.6197ZM35.7648 69.7038C38.6161 70.1097 41.1567 71.2568 42.8552 73.8435C44.4142 76.2182 44.3073 78.4859 43.1609 80.2045C42.4761 81.2318 41.4186 82.0421 40.1301 82.5402C38.8897 83.0187 37.4232 83.2111 35.8706 83.027C33.0534 82.6929 29.9046 81.1157 27.2699 77.747L28.7882 76.3229C31.0759 79.3337 33.7688 80.7325 36.1567 81.0156C37.3552 81.1581 38.4709 81.0159 39.3992 80.658C40.2806 80.3167 40.9907 79.7827 41.4333 79.119C42.1458 78.0498 42.1726 76.5773 41.1121 74.9626C39.5387 72.5657 36.8518 71.7311 33.8425 71.5837L35.3668 70.1547C35.5172 70.0134 35.651 69.8618 35.7648 69.7038ZM10.49 63.9612C11.4575 66.0029 13.9388 67.9747 18.6133 69.028C16.7817 69.2306 13.9369 69.3138 11.8941 68.4724C11.0127 67.8707 10.2961 67.2161 9.72763 66.5324C9.50879 65.9591 9.51711 65.3233 9.80888 64.7436C9.97594 64.4102 10.211 64.1506 10.49 63.9612ZM40.2386 84.6749C40.0409 84.9119 39.8206 85.13 39.5825 85.3288C38.6391 86.1183 37.4074 86.5851 36.0475 86.6799C34.7386 86.771 33.3009 86.5159 31.8908 85.8715C29.4998 84.7788 27.1535 82.5485 25.6277 78.9553C28.1029 82.146 31.452 84.5717 35.6287 85.0661C37.1696 85.249 38.7544 85.1352 40.2386 84.6749ZM38.8221 78.6741C37.5967 75.9623 34.7689 74.531 31.5865 73.6205C34.6786 73.4799 37.932 73.8605 39.3954 76.0905C39.7299 76.5992 40.1135 77.3967 39.7242 77.9799C39.5194 78.2875 39.1656 78.5192 38.8221 78.6741Z" fill="url(#paint1_linear_1_5)"/>
<path d="M88.2413 62.2487C88.4718 62.2487 88.6997 62.2105 88.9254 62.1338C89.1506 62.0571 89.357 61.9369 89.5441 61.774C89.7312 61.6107 89.8895 61.3994 90.0192 61.1405C90.1488 60.8813 90.2376 60.5695 90.2856 60.2047H87.6082C87.5024 60.2047 87.4113 60.1662 87.3346 60.0894C87.2578 60.0127 87.2193 59.9216 87.2193 59.8162V59.3555C87.2193 59.25 87.2578 59.1586 87.3346 59.0818C87.4113 59.0051 87.5024 58.9669 87.6082 58.9669H90.2856C90.2376 58.6117 90.1488 58.307 90.0192 58.0527C89.8895 57.7983 89.7312 57.5897 89.5441 57.4264C89.357 57.2635 89.1506 57.1433 88.9254 57.0666C88.6997 56.9899 88.4718 56.9513 88.2413 56.9513C87.7809 56.9513 87.3875 57.0379 87.0609 57.2106C86.7347 57.3833 86.4804 57.6713 86.2982 58.0742C86.2309 58.2277 86.1614 58.3308 86.0892 58.3837C86.0174 58.4367 85.9286 58.4631 85.8231 58.4631H85.3911C85.2857 58.4631 85.1919 58.4246 85.1107 58.3478C85.029 58.2711 84.9931 58.1797 85.0026 58.0742C85.012 57.844 85.0865 57.5919 85.2256 57.3187C85.3647 57.045 85.571 56.7907 85.8447 56.5556C86.1183 56.3205 86.4539 56.1213 86.8523 55.9581C87.2507 55.7952 87.7136 55.7135 88.2413 55.7135C88.7693 55.7135 89.2345 55.7997 89.6378 55.9724C90.0407 56.1451 90.3816 56.3806 90.6598 56.678C90.938 56.9755 91.1564 57.3259 91.3148 57.7288C91.4731 58.132 91.5714 58.5637 91.61 59.0244C91.6292 59.1877 91.6364 59.3819 91.6315 59.6072C91.6266 59.8328 91.6194 60.0226 91.61 60.176C91.5907 60.6367 91.5019 61.0683 91.3435 61.4716C91.1851 61.8745 90.9644 62.2249 90.6813 62.5223C90.3982 62.8198 90.0528 63.0549 89.645 63.2276C89.2372 63.4003 88.7693 63.4869 88.2413 63.4869C87.7136 63.4869 87.2507 63.4052 86.8523 63.242C86.4539 63.0791 86.1183 62.8799 85.8447 62.6448C85.571 62.4097 85.3647 62.1553 85.2256 61.8817C85.0865 61.6084 85.012 61.3563 85.0026 61.1262C84.9931 61.0203 85.029 60.9293 85.1107 60.8525C85.1919 60.7758 85.2857 60.7373 85.3911 60.7373H85.8231C85.9286 60.7373 86.0174 60.7637 86.0892 60.8166C86.1614 60.8692 86.2309 60.9723 86.2982 61.1262C86.4804 61.5291 86.7347 61.8171 87.0609 61.9898C87.3875 62.1625 87.7809 62.2487 88.2413 62.2487ZM259.585 60.464L261.874 56.1451C261.902 56.0877 261.957 56.0253 262.039 55.9581C262.12 55.8912 262.243 55.8575 262.406 55.8575H262.881C262.987 55.8575 263.078 55.8957 263.154 55.9724C263.231 56.0495 263.27 56.1406 263.27 56.2461V62.9543C263.27 63.0598 263.231 63.1509 263.154 63.2276C263.078 63.3043 262.987 63.3429 262.881 63.3429H262.349C262.243 63.3429 262.152 63.3043 262.075 63.2276C261.998 63.1509 261.96 63.0598 261.96 62.9543V58.6211L260.261 61.7592C260.213 61.8458 260.153 61.9274 260.081 62.0042C260.009 62.0809 259.901 62.1194 259.757 62.1194H259.412C259.268 62.1194 259.16 62.0809 259.088 62.0042C259.016 61.9274 258.956 61.8458 258.908 61.7592L257.209 58.6211V62.9543C257.209 63.0598 257.171 63.1509 257.094 63.2276C257.018 63.3043 256.926 63.3429 256.821 63.3429H256.288C256.183 63.3429 256.091 63.3043 256.014 63.2276C255.938 63.1509 255.9 63.0598 255.9 62.9543V56.2461C255.9 56.1406 255.938 56.0495 256.014 55.9724C256.091 55.8957 256.183 55.8575 256.288 55.8575H256.763C256.926 55.8575 257.049 55.8912 257.13 55.9581C257.212 56.0253 257.267 56.0877 257.296 56.1451L259.585 60.464ZM268.409 61.4573C268.409 61.0733 268.485 60.7373 268.639 60.4496C268.793 60.1616 269.004 59.9167 269.273 59.7153C269.541 59.5138 269.855 59.3506 270.215 59.2258C270.575 59.1011 270.957 59.0051 271.36 58.9378L273.389 58.6067V58.4197C273.389 57.9302 273.229 57.5632 272.907 57.3187C272.586 57.0738 272.185 56.9513 271.705 56.9513C271.283 56.9513 270.964 57.0284 270.748 57.1819C270.532 57.3353 270.347 57.5175 270.194 57.7288C270.136 57.8055 270.074 57.8584 270.007 57.8871C269.939 57.9158 269.848 57.9302 269.733 57.9302H269.301C269.196 57.9302 269.102 57.892 269.021 57.8153C268.939 57.7382 268.903 57.6471 268.913 57.5417C268.932 57.3304 269.016 57.1146 269.165 56.8939C269.313 56.6731 269.515 56.4766 269.769 56.3035C270.023 56.1308 270.316 55.9894 270.647 55.8791C270.978 55.7687 271.331 55.7135 271.705 55.7135C272.137 55.7135 272.538 55.7759 272.907 55.9006C273.277 56.0253 273.593 56.2079 273.857 56.4475C274.121 56.6875 274.327 56.9849 274.476 57.3402C274.625 57.6951 274.699 58.1029 274.699 58.5637V62.9543C274.699 63.0598 274.661 63.1509 274.584 63.2276C274.507 63.3043 274.416 63.3429 274.311 63.3429H273.778C273.672 63.3429 273.581 63.3043 273.505 63.2276C273.428 63.1509 273.389 63.0598 273.389 62.9543V62.364C273.303 62.5465 273.169 62.7072 272.986 62.8462C272.804 62.9853 272.595 63.1029 272.36 63.1989C272.125 63.2949 271.881 63.3667 271.626 63.4147C271.372 63.4627 271.134 63.4869 270.913 63.4869C270.539 63.4869 270.196 63.434 269.884 63.3285C269.572 63.2231 269.309 63.0813 269.092 62.9037C268.877 62.7264 268.709 62.5129 268.589 62.2631C268.469 62.0136 268.409 61.7449 268.409 61.4573ZM271.057 62.2487C271.403 62.2487 271.72 62.1962 272.008 62.0903C272.296 61.9849 272.543 61.8386 272.749 61.6515C272.955 61.4644 273.113 61.2411 273.224 60.9822C273.334 60.7229 273.389 60.4349 273.389 60.1186V59.7584L271.691 60.032C271.086 60.128 270.606 60.2815 270.251 60.4927C269.896 60.7036 269.719 60.9773 269.719 61.3133C269.719 61.4187 269.743 61.5242 269.791 61.63C269.839 61.7354 269.916 61.8363 270.021 61.932C270.126 62.028 270.263 62.1051 270.431 62.1625C270.599 62.22 270.808 62.2487 271.057 62.2487ZM277.636 56.2461C277.636 56.1406 277.675 56.0495 277.751 55.9724C277.828 55.8957 277.919 55.8575 278.025 55.8575H282.876C282.982 55.8575 283.073 55.8957 283.15 55.9724C283.226 56.0495 283.265 56.1406 283.265 56.2461V62.9543C283.265 63.0598 283.226 63.1509 283.15 63.2276C283.073 63.3043 282.982 63.3429 282.876 63.3429H282.343C282.238 63.3429 282.147 63.3043 282.07 63.2276C281.993 63.1509 281.955 63.0598 281.955 62.9543V57.0953H278.946V60.8525C278.946 61.246 278.906 61.6035 278.824 61.9248C278.742 62.2464 278.608 62.5223 278.421 62.7525C278.234 62.9831 277.986 63.163 277.679 63.2926C277.372 63.4219 276.993 63.4869 276.542 63.4869H276.37C276.264 63.4869 276.173 63.4483 276.096 63.3716C276.019 63.2949 275.981 63.2038 275.981 63.0983V62.6376C275.981 62.5318 276.019 62.4407 276.096 62.364C276.173 62.2872 276.264 62.2487 276.37 62.2487H276.542C276.984 62.2487 277.276 62.1217 277.42 61.8673C277.564 61.613 277.636 61.2698 277.636 60.8382V56.2461ZM285.813 63.3429C285.707 63.3429 285.616 63.3043 285.539 63.2276C285.462 63.1509 285.424 63.0598 285.424 62.9543V56.2461C285.424 56.1406 285.462 56.0495 285.539 55.9724C285.616 55.8957 285.707 55.8575 285.813 55.8575H286.345C286.451 55.8575 286.542 55.8957 286.619 55.9724C286.696 56.0495 286.734 56.1406 286.734 56.2461V57.7H288.289C288.749 57.7 289.169 57.7673 289.548 57.9015C289.927 58.036 290.254 58.2254 290.527 58.4703C290.8 58.7148 291.014 59.0123 291.167 59.3626C291.321 59.713 291.398 60.0993 291.398 60.5215C291.398 60.9436 291.321 61.3299 291.167 61.6803C291.014 62.0306 290.8 62.3281 290.527 62.5726C290.254 62.8175 289.927 63.0069 289.548 63.1414C289.169 63.2756 288.749 63.3429 288.289 63.3429H285.813ZM290.102 60.5215C290.102 60.2335 290.052 59.9889 289.951 59.7875C289.85 59.5856 289.711 59.4227 289.534 59.298C289.356 59.1729 289.143 59.0818 288.893 59.0244C288.644 58.9669 288.375 58.9378 288.087 58.9378H286.734V62.1051H288.087C288.375 62.1051 288.644 62.076 288.893 62.0185C289.143 61.9611 289.356 61.8696 289.534 61.7449C289.711 61.6202 289.85 61.4573 289.951 61.2554C290.052 61.054 290.102 60.8095 290.102 60.5215ZM299.258 55.8575C299.363 55.8575 299.454 55.8957 299.531 55.9724C299.608 56.0495 299.646 56.1406 299.646 56.2461V62.9543C299.646 63.0598 299.608 63.1509 299.531 63.2276C299.454 63.3043 299.363 63.3429 299.258 63.3429H298.725C298.62 63.3429 298.529 63.3043 298.452 63.2276C298.375 63.1509 298.336 63.0598 298.336 62.9543V57.0953H294.277V62.9543C294.277 63.0598 294.239 63.1509 294.162 63.2276C294.085 63.3043 293.994 63.3429 293.888 63.3429H293.356C293.25 63.3429 293.159 63.3043 293.082 63.2276C293.005 63.1509 292.967 63.0598 292.967 62.9543V56.2461C292.967 56.1406 293.005 56.0495 293.082 55.9724C293.159 55.8957 293.25 55.8575 293.356 55.8575H299.258ZM307.563 63.3429C307.458 63.3429 307.367 63.3043 307.29 63.2276C307.213 63.1509 307.175 63.0598 307.175 62.9543V58.132L302.986 63.1845C302.909 63.29 302.804 63.3429 302.669 63.3429H302.18C302.074 63.3429 301.986 63.3043 301.913 63.2276C301.842 63.1509 301.806 63.0598 301.806 62.9543V56.2461C301.806 56.1406 301.844 56.0495 301.921 55.9724C301.997 55.8957 302.089 55.8575 302.194 55.8575H302.727C302.832 55.8575 302.924 55.8957 303 55.9724C303.077 56.0495 303.115 56.1406 303.115 56.2461V61.1118L307.305 56.0159C307.353 55.9679 307.398 55.9293 307.441 55.9006C307.484 55.8719 307.545 55.8575 307.621 55.8575H308.096C308.202 55.8575 308.293 55.8957 308.37 55.9724C308.446 56.0495 308.485 56.1406 308.485 56.2461V62.9543C308.485 63.0598 308.446 63.1509 308.37 63.2276C308.293 63.3043 308.202 63.3429 308.096 63.3429H307.563ZM316.935 55.8575C317.04 55.8575 317.131 55.8957 317.208 55.9724C317.285 56.0495 317.323 56.1406 317.323 56.2461V62.9543C317.323 63.0598 317.285 63.1509 317.208 63.2276C317.131 63.3043 317.04 63.3429 316.935 63.3429H316.402C316.296 63.3429 316.205 63.3043 316.129 63.2276C316.052 63.1509 316.013 63.0598 316.013 62.9543V60.1473H311.954V62.9543C311.954 63.0598 311.916 63.1509 311.839 63.2276C311.762 63.3043 311.671 63.3429 311.565 63.3429H311.033C310.927 63.3429 310.836 63.307 310.759 63.2348C310.682 63.163 310.644 63.0692 310.644 62.9543V56.2461C310.644 56.1406 310.682 56.0495 310.759 55.9724C310.836 55.8957 310.927 55.8575 311.033 55.8575H311.565C311.671 55.8575 311.762 55.8957 311.839 55.9724C311.916 56.0495 311.954 56.1406 311.954 56.2461V58.9091H316.013V56.2461C316.013 56.1406 316.052 56.0495 316.129 55.9724C316.205 55.8957 316.296 55.8575 316.402 55.8575H316.935ZM325.24 63.3429C325.135 63.3429 325.044 63.3043 324.967 63.2276C324.89 63.1509 324.852 63.0598 324.852 62.9543V58.132L320.663 63.1845C320.586 63.29 320.48 63.3429 320.346 63.3429H319.857C319.751 63.3429 319.662 63.3043 319.59 63.2276C319.518 63.1509 319.483 63.0598 319.483 62.9543V56.2461C319.483 56.1406 319.521 56.0495 319.597 55.9724C319.674 55.8957 319.766 55.8575 319.871 55.8575H320.404C320.509 55.8575 320.601 55.8957 320.677 55.9724C320.754 56.0495 320.792 56.1406 320.792 56.2461V61.1118L324.981 56.0159C325.029 55.9679 325.075 55.9293 325.118 55.9006C325.161 55.8719 325.221 55.8575 325.298 55.8575H325.773C325.879 55.8575 325.97 55.8957 326.046 55.9724C326.123 56.0495 326.162 56.1406 326.162 56.2461V62.9543C326.162 63.0598 326.123 63.1509 326.046 63.2276C325.97 63.3043 325.879 63.3429 325.773 63.3429H325.24ZM329.127 61.5676C329.29 61.8696 329.523 62.0593 329.825 62.1361C330.127 62.2105 330.47 62.2487 330.854 62.2487C331.094 62.2487 331.317 62.2321 331.524 62.1984C331.73 62.1648 331.91 62.1096 332.063 62.0329C332.217 61.9562 332.339 61.8507 332.43 61.7162C332.522 61.582 332.567 61.4187 332.567 61.2267C332.567 60.862 332.414 60.6004 332.107 60.4421C331.8 60.2841 331.421 60.2047 330.97 60.2047H329.847C329.741 60.2047 329.65 60.1662 329.573 60.0894C329.496 60.0127 329.458 59.9216 329.458 59.8162V59.3555C329.458 59.25 329.496 59.1586 329.573 59.0818C329.65 59.0051 329.741 58.9669 329.847 58.9669H330.984C331.387 58.9669 331.73 58.8826 332.013 58.7148C332.296 58.547 332.438 58.2949 332.438 57.9589C332.438 57.604 332.284 57.3474 331.977 57.189C331.67 57.0307 331.296 56.9513 330.854 56.9513C330.422 56.9513 330.087 57.0163 329.847 57.146C329.607 57.2752 329.415 57.4888 329.271 57.7862C329.223 57.892 329.158 57.9831 329.077 58.0598C328.995 58.1366 328.902 58.1751 328.796 58.1751H328.364C328.258 58.1751 328.165 58.1366 328.083 58.0598C328.002 57.9831 327.966 57.892 327.975 57.7862C327.985 57.5273 328.055 57.2729 328.184 57.0235C328.313 56.774 328.498 56.5507 328.738 56.3541C328.978 56.1572 329.276 56.0015 329.631 55.8862C329.986 55.771 330.394 55.7135 330.854 55.7135C331.257 55.7135 331.634 55.7589 331.984 55.8503C332.334 55.9414 332.639 56.0805 332.898 56.2676C333.158 56.4547 333.364 56.6875 333.517 56.9657C333.671 57.2442 333.748 57.5753 333.748 57.9589C333.748 58.2949 333.688 58.5924 333.568 58.8517C333.448 59.1106 333.282 59.3362 333.071 59.5282C333.321 59.7104 333.517 59.9383 333.661 60.2119C333.805 60.4855 333.877 60.8238 333.877 61.2267C333.877 61.6489 333.798 62.0042 333.64 62.2922C333.482 62.5798 333.265 62.8126 332.992 62.9902C332.718 63.1679 332.397 63.2949 332.028 63.3716C331.658 63.4483 331.267 63.4869 330.854 63.4869C330.346 63.4869 329.907 63.434 329.537 63.3285C329.168 63.2253 328.858 63.0836 328.609 62.9063C328.359 62.731 328.17 62.5246 328.04 62.2922C327.911 62.0593 327.841 61.8171 327.832 61.5699C327.822 61.4644 327.858 61.3756 327.939 61.2989C328.021 61.2222 328.115 61.1836 328.22 61.1836H328.652C328.758 61.1836 328.844 61.2101 328.911 61.2626C328.978 61.3133 329.05 61.4164 329.127 61.5676ZM339.391 60.464L341.68 56.1451C341.708 56.0877 341.764 56.0253 341.845 55.9581C341.927 55.8912 342.049 55.8575 342.212 55.8575H342.687C342.793 55.8575 342.884 55.8957 342.961 55.9724C343.038 56.0495 343.076 56.1406 343.076 56.2461V62.9543C343.076 63.0598 343.038 63.1509 342.961 63.2276C342.884 63.3043 342.793 63.3429 342.687 63.3429H342.155C342.049 63.3429 341.958 63.3043 341.881 63.2276C341.804 63.1509 341.766 63.0598 341.766 62.9543V58.6211L340.067 61.7592C340.019 61.8458 339.959 61.9274 339.888 62.0042C339.815 62.0809 339.708 62.1194 339.564 62.1194H339.218C339.074 62.1194 338.966 62.0809 338.894 62.0042C338.822 61.9274 338.762 61.8458 338.714 61.7592L337.015 58.6211V62.9543C337.015 63.0598 336.977 63.1509 336.901 63.2276C336.824 63.3043 336.732 63.3429 336.627 63.3429H336.094C335.989 63.3429 335.897 63.3043 335.821 63.2276C335.744 63.1509 335.706 63.0598 335.706 62.9543V56.2461C335.706 56.1406 335.744 56.0495 335.821 55.9724C335.897 55.8957 335.989 55.8575 336.094 55.8575H336.569C336.732 55.8575 336.855 55.8912 336.936 55.9581C337.018 56.0253 337.073 56.0877 337.102 56.1451L339.391 60.464ZM344.89 58.8804C344.928 58.4389 345.034 58.0262 345.206 57.6426C345.379 57.2586 345.605 56.9226 345.883 56.6346C346.162 56.347 346.495 56.1213 346.883 55.9581C347.272 55.7952 347.707 55.7135 348.186 55.7135C348.704 55.7135 349.168 55.7974 349.576 55.9652C349.983 56.1334 350.331 56.3757 350.619 56.6924C350.907 57.0091 351.128 57.3928 351.281 57.844C351.435 58.2949 351.511 58.7987 351.511 59.3555V59.744C351.511 59.8498 351.473 59.9409 351.397 60.0176C351.32 60.0944 351.228 60.1329 351.123 60.1329H346.171V60.2191C346.19 60.8718 346.389 61.373 346.769 61.7233C347.148 62.0737 347.62 62.2487 348.186 62.2487C348.714 62.2487 349.11 62.1746 349.374 62.0257C349.638 61.8768 349.851 61.7112 350.014 61.5291C350.091 61.4524 350.158 61.3994 350.216 61.3707C350.274 61.342 350.36 61.3276 350.475 61.3276H350.907C351.013 61.3276 351.109 61.3658 351.195 61.4429C351.281 61.5196 351.315 61.6107 351.296 61.7162C351.267 61.8889 351.185 62.0786 351.051 62.285C350.917 62.4913 350.722 62.683 350.468 62.8606C350.214 63.0382 349.897 63.1868 349.518 63.307C349.139 63.4268 348.695 63.4869 348.186 63.4869C347.707 63.4869 347.275 63.403 346.891 63.2348C346.507 63.067 346.174 62.8368 345.89 62.5439C345.607 62.2513 345.379 61.9059 345.206 61.5075C345.034 61.1092 344.928 60.6749 344.89 60.2047C344.842 59.7633 344.842 59.3218 344.89 58.8804ZM346.171 58.9235H350.216V58.8804C350.216 58.2949 350.031 57.827 349.662 57.477C349.292 57.1267 348.8 56.9513 348.186 56.9513C347.908 56.9513 347.649 56.997 347.409 57.0881C347.169 57.1792 346.958 57.3089 346.776 57.477C346.593 57.6449 346.45 57.8486 346.344 58.0886C346.238 58.3286 346.181 58.5924 346.171 58.8804V58.9235ZM94.7334 58.7364L97.7279 56.102C97.7853 56.054 97.8598 56.0015 97.9509 55.9437C98.042 55.8862 98.1546 55.8575 98.2891 55.8575H98.98C99.076 55.8575 99.1577 55.8912 99.2249 55.9581C99.2918 56.0253 99.3255 56.107 99.3255 56.203C99.3255 56.251 99.3183 56.2963 99.3039 56.3398C99.2896 56.3829 99.2438 56.4331 99.1671 56.491L95.6835 59.5426L99.5126 62.7238C99.6086 62.8005 99.6566 62.892 99.6566 62.9974C99.6566 63.0934 99.6229 63.1751 99.556 63.242C99.4888 63.3092 99.4071 63.3429 99.3111 63.3429H98.5628C98.4188 63.3429 98.2963 63.3141 98.1954 63.2563C98.0949 63.1989 98.0204 63.146 97.9724 63.0983L94.7334 60.4062V62.9543C94.7334 63.0598 94.6952 63.1509 94.6185 63.2276C94.5417 63.3043 94.4503 63.3429 94.3448 63.3429H93.8123C93.7068 63.3429 93.6154 63.3043 93.5386 63.2276C93.4619 63.1509 93.4237 63.0598 93.4237 62.9543V56.2461C93.4237 56.1406 93.4619 56.0495 93.5386 55.9724C93.6154 55.8957 93.7068 55.8575 93.8123 55.8575H94.3448C94.4503 55.8575 94.5417 55.8957 94.6185 55.9724C94.6952 56.0495 94.7334 56.1406 94.7334 56.2461V58.7364ZM101.485 60.1038C101.523 60.4878 101.607 60.814 101.737 61.0827C101.866 61.3514 102.025 61.5722 102.212 61.7449C102.399 61.9176 102.608 62.045 102.838 62.1266C103.068 62.2079 103.303 62.2487 103.543 62.2487C104.004 62.2487 104.398 62.1625 104.724 61.9898C105.05 61.8171 105.304 61.5291 105.487 61.1262C105.554 60.9723 105.623 60.8692 105.696 60.8166C105.767 60.7637 105.856 60.7373 105.962 60.7373H106.394C106.499 60.7373 106.593 60.7758 106.674 60.8525C106.756 60.9293 106.792 61.0203 106.782 61.1262C106.773 61.3563 106.698 61.6084 106.559 61.8817C106.42 62.1553 106.214 62.4097 105.94 62.6448C105.667 62.8799 105.331 63.0791 104.932 63.242C104.534 63.4052 104.071 63.4869 103.543 63.4869C103.015 63.4869 102.548 63.4003 102.14 63.2276C101.732 63.0549 101.386 62.8198 101.103 62.5223C100.82 62.2249 100.6 61.8745 100.441 61.4716C100.283 61.0683 100.194 60.6367 100.175 60.176C100.165 60.0226 100.158 59.8328 100.153 59.6072C100.149 59.3819 100.156 59.1877 100.175 59.0244C100.213 58.5637 100.312 58.132 100.47 57.7288C100.628 57.3259 100.847 56.9755 101.125 56.678C101.403 56.3806 101.744 56.1451 102.147 55.9724C102.55 55.7997 103.015 55.7135 103.543 55.7135C104.071 55.7135 104.534 55.7952 104.932 55.9581C105.331 56.1213 105.667 56.3205 105.94 56.5556C106.214 56.7907 106.42 57.045 106.559 57.3187C106.698 57.5919 106.773 57.844 106.782 58.0742C106.792 58.1797 106.756 58.2711 106.674 58.3478C106.593 58.4246 106.499 58.4631 106.394 58.4631H105.962C105.856 58.4631 105.767 58.4367 105.696 58.3837C105.623 58.3308 105.554 58.2277 105.487 58.0742C105.304 57.6713 105.05 57.3833 104.724 57.2106C104.398 57.0379 104.004 56.9513 103.543 56.9513C103.303 56.9513 103.066 56.9921 102.831 57.0738C102.596 57.1554 102.385 57.2824 102.198 57.4551C102.01 57.6278 101.852 57.8486 101.722 58.1173C101.593 58.386 101.514 58.7126 101.485 59.0962C101.456 59.4515 101.456 59.7875 101.485 60.1038ZM114.8 55.8575C114.906 55.8575 114.997 55.8957 115.074 55.9724C115.15 56.0495 115.189 56.1406 115.189 56.2461V62.9543C115.189 63.0598 115.15 63.1509 115.074 63.2276C114.997 63.3043 114.906 63.3429 114.8 63.3429H114.267C114.162 63.3429 114.071 63.3043 113.994 63.2276C113.917 63.1509 113.879 63.0598 113.879 62.9543V57.0953H109.819V62.9543C109.819 63.0598 109.781 63.1509 109.704 63.2276C109.628 63.3043 109.536 63.3429 109.431 63.3429H108.898C108.793 63.3429 108.701 63.3043 108.625 63.2276C108.548 63.1509 108.51 63.0598 108.51 62.9543V56.2461C108.51 56.1406 108.548 56.0495 108.625 55.9724C108.701 55.8957 108.793 55.8575 108.898 55.8575H114.8ZM117.002 58.8804C117.041 58.4389 117.146 58.0262 117.319 57.6426C117.492 57.2586 117.717 56.9226 117.996 56.6346C118.274 56.347 118.608 56.1213 118.996 55.9581C119.385 55.7952 119.819 55.7135 120.299 55.7135C120.817 55.7135 121.28 55.7974 121.688 55.9652C122.096 56.1334 122.444 56.3757 122.732 56.6924C123.02 57.0091 123.24 57.3928 123.394 57.844C123.547 58.2949 123.624 58.7987 123.624 59.3555V59.744C123.624 59.8498 123.586 59.9409 123.509 60.0176C123.432 60.0944 123.341 60.1329 123.236 60.1329H118.284V60.2191C118.303 60.8718 118.502 61.373 118.881 61.7233C119.26 62.0737 119.733 62.2487 120.299 62.2487C120.827 62.2487 121.223 62.1746 121.487 62.0257C121.751 61.8768 121.964 61.7112 122.127 61.5291C122.204 61.4524 122.271 61.3994 122.329 61.3707C122.386 61.342 122.472 61.3276 122.588 61.3276H123.02C123.125 61.3276 123.221 61.3658 123.308 61.4429C123.394 61.5196 123.428 61.6107 123.408 61.7162C123.38 61.8889 123.298 62.0786 123.164 62.285C123.029 62.4913 122.835 62.683 122.581 62.8606C122.326 63.0382 122.009 63.1868 121.63 63.307C121.251 63.4268 120.808 63.4869 120.299 63.4869C119.819 63.4869 119.387 63.403 119.004 63.2348C118.62 63.067 118.286 62.8368 118.003 62.5439C117.72 62.2513 117.492 61.9059 117.319 61.5075C117.146 61.1092 117.041 60.6749 117.002 60.2047C116.954 59.7633 116.954 59.3218 117.002 58.8804ZM118.284 58.9235H122.329V58.8804C122.329 58.2949 122.144 57.827 121.774 57.477C121.405 57.1267 120.913 56.9513 120.299 56.9513C120.021 56.9513 119.761 56.997 119.522 57.0881C119.282 57.1792 119.07 57.3089 118.888 57.477C118.706 57.6449 118.562 57.8486 118.456 58.0886C118.351 58.3286 118.293 58.5924 118.284 58.8804V58.9235ZM128.907 63.4869C128.312 63.4869 127.837 63.3837 127.482 63.1773C127.127 62.971 126.858 62.748 126.676 62.508V65.6892C126.676 65.7946 126.637 65.8861 126.561 65.9628C126.484 66.0396 126.393 66.0781 126.287 66.0781H125.755C125.649 66.0781 125.558 66.0396 125.481 65.9628C125.404 65.8861 125.366 65.7946 125.366 65.6892V56.2461C125.366 56.1406 125.404 56.0495 125.481 55.9724C125.558 55.8957 125.649 55.8575 125.755 55.8575H126.287C126.393 55.8575 126.484 55.8957 126.561 55.9724C126.637 56.0495 126.676 56.1406 126.676 56.2461V56.6924C126.868 56.4331 127.141 56.2052 127.496 56.0087C127.851 55.8118 128.322 55.7135 128.907 55.7135C129.358 55.7135 129.778 55.7925 130.167 55.9509C130.555 56.1092 130.894 56.3371 131.182 56.6346C131.469 56.9324 131.7 57.2922 131.873 57.7144C132.045 58.1366 132.146 58.6117 132.175 59.1397C132.184 59.2833 132.189 59.4394 132.189 59.6072C132.189 59.7754 132.184 59.9311 132.175 60.0751C132.146 60.6031 132.045 61.0782 131.873 61.5004C131.7 61.9225 131.469 62.2801 131.182 62.5726C130.894 62.8655 130.555 63.0908 130.167 63.2491C129.778 63.4075 129.358 63.4869 128.907 63.4869ZM126.676 58.9813C126.666 59.1253 126.661 59.3147 126.661 59.5497C126.661 59.7848 126.666 59.9746 126.676 60.1186C126.705 60.7996 126.908 61.325 127.288 61.6946C127.667 62.0643 128.158 62.2487 128.763 62.2487C129.397 62.2487 129.895 62.0472 130.26 61.6443C130.625 61.2411 130.826 60.6942 130.865 60.0033C130.874 59.7346 130.874 59.4658 130.865 59.1971C130.826 58.5062 130.625 57.9589 130.26 57.556C129.895 57.1531 129.397 56.9513 128.763 56.9513C128.168 56.9513 127.679 57.1339 127.295 57.4986C126.911 57.8633 126.705 58.3573 126.676 58.9813ZM139.617 55.8575C139.723 55.8575 139.814 55.8957 139.89 55.9724C139.967 56.0495 140.006 56.1406 140.006 56.2461V56.7068C140.006 56.8122 139.967 56.9033 139.89 56.9804C139.814 57.0571 139.723 57.0953 139.617 57.0953H137.127V62.9543C137.127 63.0598 137.088 63.1509 137.012 63.2276C136.935 63.3043 136.844 63.3429 136.738 63.3429H136.205C136.1 63.3429 136.009 63.3043 135.932 63.2276C135.855 63.1509 135.817 63.0598 135.817 62.9543V57.0953H133.326C133.221 57.0953 133.13 57.0571 133.053 56.9804C132.976 56.9033 132.938 56.8122 132.938 56.7068V56.2461C132.938 56.1406 132.976 56.0495 133.053 55.9724C133.13 55.8957 133.221 55.8575 133.326 55.8575H139.617ZM146.123 60.1904V62.0903H148.556C149.036 62.0903 149.42 62.0208 149.708 61.8817C149.996 61.7426 150.14 61.4905 150.14 61.1262C150.14 60.7615 150.003 60.5143 149.729 60.3846C149.456 60.255 149.079 60.1904 148.599 60.1904H146.123ZM146.123 57.1097V58.9378H148.484C148.964 58.9378 149.334 58.8732 149.592 58.7436C149.852 58.6139 149.981 58.3671 149.981 58.0024C149.981 57.6377 149.84 57.3977 149.557 57.2824C149.273 57.1675 148.892 57.1097 148.412 57.1097H146.123ZM145.101 63.3429C145.025 63.3429 144.957 63.3141 144.9 63.2563C144.842 63.1989 144.814 63.1316 144.814 63.0549V56.1451C144.814 56.0684 144.842 56.0015 144.9 55.9437C144.957 55.8862 145.025 55.8575 145.101 55.8575H148.671C149.496 55.8575 150.14 56.0397 150.6 56.4044C151.061 56.7691 151.291 57.2537 151.291 57.8584C151.291 58.0791 151.265 58.2711 151.212 58.434C151.159 58.5973 151.092 58.7413 151.011 58.866C150.929 58.9907 150.838 59.1011 150.737 59.1971C150.636 59.2931 150.533 59.3793 150.427 59.4564C150.821 59.6771 151.09 59.9311 151.234 60.2191C151.378 60.5071 151.45 60.8382 151.45 61.2124C151.45 61.9032 151.212 62.4312 150.737 62.796C150.262 63.1607 149.626 63.3429 148.83 63.3429H145.101ZM163.081 55.8575C163.186 55.8575 163.277 55.8957 163.354 55.9724C163.431 56.0495 163.469 56.1406 163.469 56.2461V62.9543C163.469 63.0598 163.431 63.1509 163.354 63.2276C163.277 63.3043 163.186 63.3429 163.081 63.3429H162.548C162.442 63.3429 162.351 63.3043 162.275 63.2276C162.198 63.1509 162.159 63.0598 162.159 62.9543V57.0953H158.1V62.9543C158.1 63.0598 158.062 63.1509 157.985 63.2276C157.908 63.3043 157.817 63.3429 157.711 63.3429H157.179C157.073 63.3429 156.982 63.3043 156.905 63.2276C156.828 63.1509 156.79 63.0598 156.79 62.9543V56.2461C156.79 56.1406 156.828 56.0495 156.905 55.9724C156.982 55.8957 157.073 55.8575 157.179 55.8575H163.081ZM169.17 63.4869C168.575 63.4869 168.1 63.3837 167.744 63.1773C167.389 62.971 167.121 62.748 166.938 62.508V65.6892C166.938 65.7946 166.9 65.8861 166.823 65.9628C166.747 66.0396 166.655 66.0781 166.55 66.0781H166.017C165.912 66.0781 165.82 66.0396 165.743 65.9628C165.667 65.8861 165.629 65.7946 165.629 65.6892V56.2461C165.629 56.1406 165.667 56.0495 165.743 55.9724C165.82 55.8957 165.912 55.8575 166.017 55.8575H166.55C166.655 55.8575 166.747 55.8957 166.823 55.9724C166.9 56.0495 166.938 56.1406 166.938 56.2461V56.6924C167.13 56.4331 167.404 56.2052 167.759 56.0087C168.114 55.8118 168.584 55.7135 169.17 55.7135C169.621 55.7135 170.04 55.7925 170.429 55.9509C170.818 56.1092 171.156 56.3371 171.444 56.6346C171.732 56.9324 171.962 57.2922 172.135 57.7144C172.308 58.1366 172.409 58.6117 172.437 59.1397C172.447 59.2833 172.452 59.4394 172.452 59.6072C172.452 59.7754 172.447 59.9311 172.437 60.0751C172.409 60.6031 172.308 61.0782 172.135 61.5004C171.962 61.9225 171.732 62.2801 171.444 62.5726C171.156 62.8655 170.818 63.0908 170.429 63.2491C170.04 63.4075 169.621 63.4869 169.17 63.4869ZM166.938 58.9813C166.929 59.1253 166.924 59.3147 166.924 59.5497C166.924 59.7848 166.929 59.9746 166.938 60.1186C166.967 60.7996 167.171 61.325 167.55 61.6946C167.929 62.0643 168.421 62.2487 169.026 62.2487C169.659 62.2487 170.158 62.0472 170.523 61.6443C170.887 61.2411 171.089 60.6942 171.127 60.0033C171.137 59.7346 171.137 59.4658 171.127 59.1971C171.089 58.5062 170.887 57.9589 170.523 57.556C170.158 57.1531 169.659 56.9513 169.026 56.9513C168.431 56.9513 167.941 57.1339 167.557 57.4986C167.174 57.8633 166.967 58.3573 166.938 58.9813ZM177.303 55.7135C177.821 55.7135 178.282 55.7925 178.685 55.9509C179.088 56.1092 179.433 56.3277 179.721 56.6059C180.009 56.8844 180.237 57.2227 180.405 57.6207C180.573 58.019 180.676 58.4533 180.715 58.9235C180.724 59.01 180.729 59.1132 180.729 59.233C180.729 59.3532 180.729 59.4779 180.729 59.6072C180.729 59.7368 180.729 59.8615 180.729 59.9817C180.729 60.1015 180.724 60.1998 180.715 60.2765C180.667 60.7565 180.561 61.1931 180.398 61.5865C180.235 61.98 180.009 62.316 179.721 62.5941C179.433 62.8727 179.088 63.0908 178.685 63.2491C178.282 63.4075 177.821 63.4869 177.303 63.4869C176.785 63.4869 176.324 63.4075 175.921 63.2491C175.518 63.0908 175.172 62.8727 174.884 62.5941C174.597 62.316 174.369 61.98 174.201 61.5865C174.033 61.1931 173.93 60.7565 173.891 60.2765C173.882 60.1998 173.874 60.1015 173.869 59.9817C173.865 59.8615 173.862 59.7368 173.862 59.6072C173.862 59.4779 173.865 59.3532 173.869 59.233C173.874 59.1132 173.882 59.01 173.891 58.9235C173.93 58.4533 174.033 58.019 174.201 57.6207C174.369 57.2227 174.597 56.8844 174.884 56.6059C175.172 56.3277 175.518 56.1092 175.921 55.9509C176.324 55.7925 176.785 55.7135 177.303 55.7135ZM179.405 60.2047C179.424 60.0415 179.433 59.8426 179.433 59.6072C179.433 59.3721 179.424 59.1684 179.405 58.9957C179.376 58.7077 179.314 58.4389 179.218 58.1895C179.122 57.94 178.987 57.7238 178.814 57.5417C178.642 57.3595 178.431 57.2155 178.181 57.1097C177.931 57.0042 177.639 56.9513 177.303 56.9513C176.967 56.9513 176.674 57.0042 176.425 57.1097C176.175 57.2155 175.964 57.3595 175.791 57.5417C175.619 57.7238 175.484 57.94 175.388 58.1895C175.292 58.4389 175.23 58.7077 175.201 58.9957C175.182 59.1684 175.172 59.3721 175.172 59.6072C175.172 59.8426 175.182 60.0415 175.201 60.2047C175.23 60.4927 175.292 60.7614 175.388 61.0109C175.484 61.2603 175.619 61.4762 175.791 61.6587C175.964 61.8409 176.175 61.9849 176.425 62.0903C176.674 62.1962 176.967 62.2487 177.303 62.2487C177.639 62.2487 177.931 62.1962 178.181 62.0903C178.431 61.9849 178.642 61.8409 178.814 61.6587C178.987 61.4762 179.122 61.2603 179.218 61.0109C179.314 60.7614 179.376 60.4927 179.405 60.2047ZM186.228 60.464L188.517 56.1451C188.545 56.0877 188.601 56.0253 188.682 55.9581C188.763 55.8912 188.886 55.8575 189.049 55.8575H189.524C189.63 55.8575 189.721 55.8957 189.798 55.9724C189.875 56.0495 189.913 56.1406 189.913 56.2461V62.9543C189.913 63.0598 189.875 63.1509 189.798 63.2276C189.721 63.3043 189.63 63.3429 189.524 63.3429H188.992C188.886 63.3429 188.795 63.3043 188.718 63.2276C188.641 63.1509 188.603 63.0598 188.603 62.9543V58.6211L186.904 61.7592C186.856 61.8458 186.796 61.9274 186.724 62.0042C186.652 62.0809 186.545 62.1194 186.401 62.1194H186.055C185.911 62.1194 185.803 62.0809 185.731 62.0042C185.659 61.9274 185.599 61.8458 185.551 61.7592L183.852 58.6211V62.9543C183.852 63.0598 183.814 63.1509 183.737 63.2276C183.661 63.3043 183.569 63.3429 183.464 63.3429H182.931C182.826 63.3429 182.734 63.3043 182.658 63.2276C182.581 63.1509 182.543 63.0598 182.543 62.9543V56.2461C182.543 56.1406 182.581 56.0495 182.658 55.9724C182.734 55.8957 182.826 55.8575 182.931 55.8575H183.406C183.569 55.8575 183.692 55.8912 183.773 55.9581C183.855 56.0253 183.91 56.0877 183.939 56.1451L186.228 60.464ZM192.461 63.3429C192.356 63.3429 192.264 63.3043 192.187 63.2276C192.111 63.1509 192.072 63.0598 192.072 62.9543V56.2461C192.072 56.1406 192.111 56.0495 192.187 55.9724C192.264 55.8957 192.356 55.8575 192.461 55.8575H192.994C193.099 55.8575 193.19 55.8957 193.267 55.9724C193.344 56.0495 193.382 56.1406 193.382 56.2461V57.7H194.937C195.398 57.7 195.817 57.7673 196.196 57.9015C196.575 58.036 196.902 58.2254 197.175 58.4703C197.449 58.7148 197.662 59.0123 197.816 59.3626C197.969 59.713 198.046 60.0993 198.046 60.5215C198.046 60.9436 197.969 61.3299 197.816 61.6803C197.662 62.0306 197.449 62.3281 197.175 62.5726C196.902 62.8175 196.575 63.0069 196.196 63.1414C195.817 63.2756 195.398 63.3429 194.937 63.3429H192.461ZM200.076 62.9543C200.076 63.0598 200.037 63.1509 199.961 63.2276C199.884 63.3043 199.793 63.3429 199.687 63.3429H199.155C199.049 63.3429 198.958 63.3043 198.881 63.2276C198.805 63.1509 198.766 63.0598 198.766 62.9543V56.2461C198.766 56.1406 198.805 56.0495 198.881 55.9724C198.958 55.8957 199.049 55.8575 199.155 55.8575H199.687C199.793 55.8575 199.884 55.8957 199.961 55.9724C200.037 56.0495 200.076 56.1406 200.076 56.2461V62.9543ZM196.751 60.5215C196.751 60.2335 196.7 59.9889 196.6 59.7875C196.499 59.5856 196.36 59.4227 196.182 59.298C196.005 59.1729 195.791 59.0818 195.541 59.0244C195.292 58.9669 195.023 58.9378 194.735 58.9378H193.382V62.1051H194.735C195.023 62.1051 195.292 62.076 195.541 62.0185C195.791 61.9611 196.005 61.8696 196.182 61.7449C196.36 61.6202 196.499 61.4573 196.6 61.2554C196.7 61.054 196.751 60.8095 196.751 60.5215ZM203.156 55.8575C203.262 55.8575 203.353 55.8957 203.43 55.9724C203.507 56.0495 203.545 56.1406 203.545 56.2461V62.1051H206.021V56.2461C206.021 56.1406 206.059 56.0495 206.136 55.9724C206.213 55.8957 206.304 55.8575 206.41 55.8575H206.942C207.048 55.8575 207.139 55.8957 207.216 55.9724C207.293 56.0495 207.331 56.1406 207.331 56.2461V62.1051H209.807V56.2461C209.807 56.1406 209.845 56.0495 209.922 55.9724C209.999 55.8957 210.09 55.8575 210.196 55.8575H210.728C210.834 55.8575 210.925 55.8957 211.002 55.9724C211.079 56.0495 211.117 56.1406 211.117 56.2461V62.9543C211.117 63.0598 211.079 63.1509 211.002 63.2276C210.925 63.3043 210.834 63.3429 210.728 63.3429H202.624C202.518 63.3429 202.427 63.3043 202.35 63.2276C202.273 63.1509 202.235 63.0598 202.235 62.9543V56.2461C202.235 56.1406 202.273 56.0495 202.35 55.9724C202.427 55.8957 202.518 55.8575 202.624 55.8575H203.156ZM214.111 56.2461C214.111 56.1406 214.149 56.0495 214.226 55.9724C214.303 55.8957 214.394 55.8575 214.5 55.8575H219.351C219.457 55.8575 219.548 55.8957 219.624 55.9724C219.701 56.0495 219.74 56.1406 219.74 56.2461V62.9543C219.74 63.0598 219.701 63.1509 219.624 63.2276C219.548 63.3043 219.457 63.3429 219.351 63.3429H218.818C218.713 63.3429 218.621 63.3043 218.545 63.2276C218.468 63.1509 218.43 63.0598 218.43 62.9543V57.0953H215.421V60.8525C215.421 61.246 215.38 61.6035 215.299 61.9248C215.217 62.2464 215.083 62.5223 214.895 62.7525C214.708 62.9831 214.461 63.163 214.154 63.2926C213.847 63.4219 213.468 63.4869 213.017 63.4869H212.844C212.739 63.4869 212.647 63.4483 212.571 63.3716C212.494 63.2949 212.456 63.2038 212.456 63.0983V62.6376C212.456 62.5318 212.494 62.4407 212.571 62.364C212.647 62.2872 212.739 62.2487 212.844 62.2487H213.017C213.459 62.2487 213.751 62.1217 213.895 61.8673C214.039 61.613 214.111 61.2698 214.111 60.8382V56.2461ZM221.553 58.8804C221.592 58.4389 221.697 58.0262 221.87 57.6426C222.043 57.2586 222.268 56.9226 222.546 56.6346C222.825 56.347 223.158 56.1213 223.547 55.9581C223.936 55.7952 224.37 55.7135 224.85 55.7135C225.368 55.7135 225.831 55.7974 226.239 55.9652C226.647 56.1334 226.995 56.3757 227.283 56.6924C227.571 57.0091 227.791 57.3928 227.945 57.844C228.098 58.2949 228.175 58.7987 228.175 59.3555V59.744C228.175 59.8498 228.137 59.9409 228.06 60.0176C227.983 60.0944 227.892 60.1329 227.786 60.1329H222.834V60.2191C222.854 60.8718 223.053 61.373 223.432 61.7233C223.811 62.0737 224.283 62.2487 224.85 62.2487C225.378 62.2487 225.773 62.1746 226.038 62.0257C226.301 61.8768 226.515 61.7112 226.678 61.5291C226.755 61.4524 226.822 61.3994 226.88 61.3707C226.937 61.342 227.023 61.3276 227.139 61.3276H227.571C227.676 61.3276 227.772 61.3658 227.859 61.4429C227.945 61.5196 227.978 61.6107 227.959 61.7162C227.93 61.8889 227.849 62.0786 227.715 62.285C227.58 62.4913 227.386 62.683 227.131 62.8606C226.877 63.0382 226.56 63.1868 226.181 63.307C225.802 63.4268 225.358 63.4869 224.85 63.4869C224.37 63.4869 223.938 63.403 223.554 63.2348C223.17 63.067 222.837 62.8368 222.554 62.5439C222.27 62.2513 222.043 61.9059 221.87 61.5075C221.697 61.1092 221.592 60.6749 221.553 60.2047C221.505 59.7633 221.505 59.3218 221.553 58.8804ZM222.834 58.9235H226.88V58.8804C226.88 58.2949 226.695 57.827 226.325 57.477C225.956 57.1267 225.464 56.9513 224.85 56.9513C224.571 56.9513 224.312 56.997 224.073 57.0881C223.833 57.1792 223.621 57.3089 223.439 57.477C223.257 57.6449 223.113 57.8486 223.007 58.0886C222.902 58.3286 222.844 58.5924 222.834 58.8804V58.9235ZM236.208 55.8575C236.313 55.8575 236.404 55.8957 236.481 55.9724C236.557 56.0495 236.596 56.1406 236.596 56.2461V62.9543C236.596 63.0598 236.557 63.1509 236.481 63.2276C236.404 63.3043 236.313 63.3429 236.208 63.3429H235.675C235.569 63.3429 235.478 63.3043 235.401 63.2276C235.325 63.1509 235.286 63.0598 235.286 62.9543V60.1473H231.226V62.9543C231.226 63.0598 231.188 63.1509 231.112 63.2276C231.035 63.3043 230.943 63.3429 230.838 63.3429H230.305C230.2 63.3429 230.108 63.307 230.032 63.2348C229.955 63.163 229.917 63.0692 229.917 62.9543V56.2461C229.917 56.1406 229.955 56.0495 230.032 55.9724C230.108 55.8957 230.2 55.8575 230.305 55.8575H230.838C230.943 55.8575 231.035 55.8957 231.112 55.9724C231.188 56.0495 231.226 56.1406 231.226 56.2461V58.9091H235.286V56.2461C235.286 56.1406 235.325 56.0495 235.401 55.9724C235.478 55.8957 235.569 55.8575 235.675 55.8575H236.208ZM245.046 55.8575C245.151 55.8575 245.242 55.8957 245.319 55.9724C245.396 56.0495 245.434 56.1406 245.434 56.2461V62.9543C245.434 63.0598 245.396 63.1509 245.319 63.2276C245.242 63.3043 245.151 63.3429 245.046 63.3429H244.513C244.408 63.3429 244.316 63.3043 244.24 63.2276C244.163 63.1509 244.124 63.0598 244.124 62.9543V60.1473H240.065V62.9543C240.065 63.0598 240.027 63.1509 239.95 63.2276C239.873 63.3043 239.782 63.3429 239.676 63.3429H239.144C239.038 63.3429 238.947 63.307 238.87 63.2348C238.793 63.163 238.755 63.0692 238.755 62.9543V56.2461C238.755 56.1406 238.793 56.0495 238.87 55.9724C238.947 55.8957 239.038 55.8575 239.144 55.8575H239.676C239.782 55.8575 239.873 55.8957 239.95 55.9724C240.027 56.0495 240.065 56.1406 240.065 56.2461V58.9091H244.124V56.2461C244.124 56.1406 244.163 56.0495 244.24 55.9724C244.316 55.8957 244.408 55.8575 244.513 55.8575H245.046ZM250.66 55.7135C251.178 55.7135 251.639 55.7925 252.041 55.9509C252.445 56.1092 252.79 56.3277 253.078 56.6059C253.366 56.8844 253.594 57.2227 253.762 57.6207C253.93 58.019 254.033 58.4533 254.071 58.9235C254.081 59.01 254.086 59.1132 254.086 59.233C254.086 59.3532 254.086 59.4779 254.086 59.6072C254.086 59.7368 254.086 59.8615 254.086 59.9817C254.086 60.1015 254.081 60.1998 254.071 60.2765C254.023 60.7565 253.918 61.1931 253.755 61.5865C253.591 61.98 253.366 62.316 253.078 62.5941C252.79 62.8727 252.445 63.0908 252.041 63.2491C251.639 63.4075 251.178 63.4869 250.66 63.4869C250.141 63.4869 249.681 63.4075 249.278 63.2491C248.875 63.0908 248.529 62.8727 248.241 62.5941C247.953 62.316 247.726 61.98 247.557 61.5865C247.39 61.1931 247.286 60.7565 247.248 60.2765C247.238 60.1998 247.231 60.1015 247.226 59.9817C247.222 59.8615 247.219 59.7368 247.219 59.6072C247.219 59.4779 247.222 59.3532 247.226 59.233C247.231 59.1132 247.238 59.01 247.248 58.9235C247.286 58.4533 247.39 58.019 247.557 57.6207C247.726 57.2227 247.953 56.8844 248.241 56.6059C248.529 56.3277 248.875 56.1092 249.278 55.9509C249.681 55.7925 250.141 55.7135 250.66 55.7135ZM252.761 60.2047C252.781 60.0415 252.79 59.8426 252.79 59.6072C252.79 59.3721 252.781 59.1684 252.761 58.9957C252.733 58.7077 252.67 58.4389 252.574 58.1895C252.478 57.94 252.344 57.7238 252.171 57.5417C251.998 57.3595 251.787 57.2155 251.538 57.1097C251.288 57.0042 250.996 56.9513 250.66 56.9513C250.324 56.9513 250.031 57.0042 249.782 57.1097C249.532 57.2155 249.321 57.3595 249.148 57.5417C248.975 57.7238 248.841 57.94 248.745 58.1895C248.649 58.4389 248.587 58.7077 248.558 58.9957C248.539 59.1684 248.529 59.3721 248.529 59.6072C248.529 59.8426 248.539 60.0415 248.558 60.2047C248.587 60.4927 248.649 60.7614 248.745 61.0109C248.841 61.2603 248.975 61.4762 249.148 61.6587C249.321 61.8409 249.532 61.9849 249.782 62.0903C250.031 62.1962 250.324 62.2487 250.66 62.2487C250.996 62.2487 251.288 62.1962 251.538 62.0903C251.787 61.9849 251.998 61.8409 252.171 61.6587C252.344 61.4762 252.478 61.2603 252.574 61.0109C252.67 60.7614 252.733 60.4927 252.761 60.2047Z" fill="#006CB4"/>
<defs>
<linearGradient id="paint0_linear_1_5" x1="217.46" y1="47.0172" x2="217.46" y2="22.4095" gradientUnits="userSpaceOnUse">
<stop stop-color="#006CB4"/>
<stop offset="1"/>
</linearGradient>
<linearGradient id="paint1_linear_1_5" x1="28.6521" y1="79.0502" x2="47.4107" y2="11.052" gradientUnits="userSpaceOnUse">
<stop stop-color="#343175"/>
<stop offset="1" stop-color="#00B3DB"/>
</linearGradient>
</defs>
</svg>
