<svg width="36" height="35" viewBox="0 0 36 35" fill="none" xmlns="http://www.w3.org/2000/svg">
<rect width="35.0324" height="35" rx="17.5" fill="#20C863"/>
<path d="M17.1784 10.3773C13.4292 10.3773 10.3871 13.4165 10.3871 17.1623C10.3871 18.6622 10.873 20.0437 11.6948 21.1686L10.8296 23.7264L13.5279 22.8856C14.5828 23.5566 15.8352 23.9474 17.1784 23.9474C20.9277 23.9474 23.9698 20.9081 23.9698 17.1623C23.9698 13.4165 20.9277 10.3773 17.1784 10.3773ZM20.2877 20.8016C19.0551 21.295 17.5854 20.8174 15.9774 19.5977C14.3695 18.378 13.3106 16.6611 13.2395 15.3861C13.1684 14.1112 14.2075 13.4678 14.7724 13.4718C15.3374 13.4757 15.9577 15.2796 15.9656 15.5559C15.9735 15.8361 15.2742 16.3334 15.2465 16.5703C15.2189 16.8071 16.1987 17.9754 16.6135 18.2912C17.0244 18.603 17.8738 19.203 18.3123 19.1477C18.7469 19.0885 19.0353 18.2162 19.3119 18.161C19.5884 18.1057 21.0976 18.8556 21.2477 19.0491C21.3979 19.2464 21.3821 20.3674 20.2877 20.8016Z" fill="white"/>
</svg>
